<svg
   id="Layer_1"
   data-name="Layer 1"
   viewBox="0 0 24 24"
   width="47"
   height="47"
   version="1.1"
   sodipodi:docname="free-icon-music-alt-3914291.svg"
   inkscape:version="1.1.1 (3bf5ae0d25, 2021-09-20)"
   xmlns:inkscape="http://www.inkscape.org/namespaces/inkscape"
   xmlns:sodipodi="http://sodipodi.sourceforge.net/DTD/sodipodi-0.dtd"
   xmlns="http://www.w3.org/2000/svg"
   xmlns:svg="http://www.w3.org/2000/svg">
  <defs
     id="defs19" />
  <sodipodi:namedview
     id="namedview17"
     pagecolor="#ffffff"
     bordercolor="#666666"
     borderopacity="1.0"
     inkscape:pageshadow="2"
     inkscape:pageopacity="0.0"
     inkscape:pagecheckerboard="0"
     showgrid="false"
     inkscape:zoom="1.1214272"
     inkscape:cx="201.97478"
     inkscape:cy="321.46537"
     inkscape:window-width="1920"
     inkscape:window-height="1001"
     inkscape:window-x="-9"
     inkscape:window-y="-9"
     inkscape:window-maximized="1"
     inkscape:current-layer="Layer_1" />
  <path
     d="M22.554.923A3.978,3.978,0,0,0,19.263.07L10.079,1.792A5,5,0,0,0,6,6.706v9.85A3.959,3.959,0,0,0,4,16a4,4,0,1,0,4,4V10.876A2,2,0,0,1,9.632,8.91l11.183-2.1A1,1,0,0,1,22,7.8v5.76A3.959,3.959,0,0,0,20,13a4,4,0,1,0,4,4V4A3.987,3.987,0,0,0,22.554.923ZM4,22a2,2,0,1,1,2-2A2,2,0,0,1,4,22ZM20.447,4.848,9.263,6.944A4,4,0,0,0,8,7.416v-.71a3,3,0,0,1,2.447-2.949l9.185-1.722A2,2,0,0,1,22,4v.984A2.955,2.955,0,0,0,20.447,4.848ZM20,19a2,2,0,1,1,2-2A2,2,0,0,1,20,19Z"
     id="path14"
     style="fill:#ffffff" />
</svg>
