<svg xmlns="http://www.w3.org/2000/svg" xmlns:xlink="http://www.w3.org/1999/xlink" width="50" height="50" viewBox="0 0 50 50">
  <defs>
    <rect id="rect-1" width="50" height="50" x="0" y="0"/>
    <mask id="mask-2" maskContentUnits="userSpaceOnUse" maskUnits="userSpaceOnUse">
      <rect width="50" height="50" x="0" y="0" fill="black"/>
      <use fill="white" xlink:href="#rect-1"/>
    </mask>
  </defs>
  <g>
    <use fill="none" xlink:href="#rect-1"/>
    <g mask="url(#mask-2)">
      <path fill="rgb(255,255,255)" fill-rule="evenodd" d="M21 15.6875C23 12.7890625 26.3984375 11 30 11c5.80078125 0 10.5 4.48828125 11 10.1875.5-.1015625 1-.1875 1.5-.1875 4.1015625 0 7.5 3.3984375 7.5 7.5S46.6015625 36 42.5 36H21V15.6875zm-6 .5c.6015625-.1015625 1.30078125-.1875 2-.1875v20h-2V16.1875zM18 16v20h2V16.5c-.6015625-.19921875-1.30078125-.3984375-2-.5zm-6 1.5c.6015625-.3984375 1.30078125-.69921875 2-1V36h-2V17.5zm-1 .8125c-.80078125.69921875-1.5 1.59375-2 2.59375V36h2V18.3125zm-5 3.78125c.1484375-.05078125.32421875-.08203125.5-.09375.11940765-.00796509.2388153-.0051117.34965515-.00245667C6.90197754 21.99879456 6.95239258 22 7 22l.06027222-.00006104c.29225158-.00048828.658638-.00109863.93972778.09381104V36H7l-.06027222.00006104C6.6474762 36.00054932 6.28108978 36.00115967 6 35.90625v-13.8125zm-1 .21875c-.69921875.19921875-1.3984375.5-2 1v11.375c.6015625.3984375 1.30078125.80078125 2 1v-13.375zM0 29c0-1.8984375.80078125-3.60546875 2-4.90625v9.8125C.80078125 32.60546875 0 30.8984375 0 29z"/>
    </g>
  </g>
</svg>
