<svg xmlns="http://www.w3.org/2000/svg" xmlns:xlink="http://www.w3.org/1999/xlink" width="50" height="50" viewBox="0 0 50 50">
  <defs>
    <rect id="rect-1" width="50" height="50" x="0" y="0"/>
    <mask id="mask-2" maskContentUnits="userSpaceOnUse" maskUnits="userSpaceOnUse">
      <rect width="50" height="50" x="0" y="0" fill="black"/>
      <use fill="white" xlink:href="#rect-1"/>
    </mask>
  </defs>
  <g>
    <use fill="none" xlink:href="#rect-1"/>
    <g mask="url(#mask-2)">
      <path fill="rgb(255,255,255)" fill-rule="evenodd" d="M40.3984375 10.19921875c2.203125.5 4.1015625 2.1015625 4.5 4.30078125.5 2.5 1 6 1.203125 10.5-.1015625 4.3984375-.6015625 8-1 10.5-.40234375 2.30078125-2.30078125 3.80078125-4.5 4.30078125C37.1015625 40.5 31.1015625 41 24.5 41s-12.6015625-.5-16.1015625-1.19921875c-2.19921875-.5-4.09765625-2.1015625-4.5-4.30078125C3.3984375 33 3 29.5 3 25s.3984375-8 .80078125-10.5c.3984375-2.30078125 2.30078125-3.80078125 4.5-4.30078125C11.6015625 9.5 17.80078125 9 24.3984375 9c6.6015625 0 12.703125.5 16 1.19921875zM31.19921875 25L19 18v14l12.19921875-7z"/>
    </g>
  </g>
</svg>
